<svg xmlns="http://www.w3.org/2000/svg" width="20" height="20" fill="none" viewBox="0 0 20 20">
  <mask id="a" width="20" height="20" x="0" y="0" maskUnits="userSpaceOnUse" style="mask-type:alpha">
    <path fill="#D9D9D9" d="M0 0h20v20H0z"/>
  </mask>
  <g mask="url(#a)">
    <path fill="#8C8C8C" d="m10 19.167-2.5-2.5H4.167c-.459 0-.851-.163-1.177-.49A1.605 1.605 0 0 1 2.5 15V3.334c0-.459.163-.851.49-1.177.326-.327.718-.49 1.177-.49h11.666c.459 0 .851.163 1.177.49.327.326.49.718.49 1.177V15c0 .459-.163.851-.49 1.177-.326.327-.718.49-1.177.49H12.5l-2.5 2.5Zm-5.833-5.125a8.4 8.4 0 0 1 2.614-1.74A8.117 8.117 0 0 1 10 11.667c1.153 0 2.226.212 3.219.635a8.4 8.4 0 0 1 2.614 1.74V3.334H4.167v10.708ZM10 10a2.81 2.81 0 0 0 2.063-.854 2.81 2.81 0 0 0 .854-2.062 2.81 2.81 0 0 0-.854-2.063A2.81 2.81 0 0 0 10 4.167a2.81 2.81 0 0 0-2.063.854 2.81 2.81 0 0 0-.854 2.063c0 .805.285 1.493.854 2.062A2.81 2.81 0 0 0 10 10Zm-4.167 5h8.334v-.208a6.095 6.095 0 0 0-1.938-1.094A6.822 6.822 0 0 0 10 13.334c-.778 0-1.52.121-2.23.364a6.094 6.094 0 0 0-1.937 1.094V15ZM10 8.334c-.347 0-.642-.122-.885-.365a1.205 1.205 0 0 1-.365-.885c0-.348.122-.643.365-.886s.538-.364.885-.364.642.121.885.364c.244.243.365.538.365.886 0 .347-.121.642-.365.885a1.205 1.205 0 0 1-.885.365Z"/>
  </g>
</svg>
